<?xml version="1.0" standalone="no"?>
<!DOCTYPE svg PUBLIC "-//W3C//DTD SVG 20010904//EN"
 "http://www.w3.org/TR/2001/REC-SVG-20010904/DTD/svg10.dtd">
<svg version="1.0" xmlns="http://www.w3.org/2000/svg"
 width="3851.000000pt" height="3851.000000pt" viewBox="0 0 3851.000000 3851.000000"
 preserveAspectRatio="xMidYMid meet">
<metadata>
Created by potrace 1.14, written by Peter Selinger 2001-2017
</metadata>
<g transform="translate(0.000000,3851.000000) scale(0.100000,-0.100000)"
fill="#000000" stroke="none">
<path d="M22287 37626 c-16 -14 -47 -40 -70 -58 -48 -39 -171 -142 -242 -202
-27 -24 -76 -64 -108 -90 -33 -26 -69 -56 -80 -66 -20 -17 -718 -597 -812
-675 -22 -18 -231 -192 -465 -386 -234 -194 -555 -461 -715 -593 -159 -133
-413 -344 -565 -470 -151 -125 -295 -245 -319 -265 -25 -20 -63 -52 -86 -71
-23 -19 -64 -53 -90 -75 -27 -22 -83 -68 -125 -103 -168 -141 -221 -185 -346
-289 -194 -160 -217 -178 -224 -176 -5 1 -524 310 -605 360 -11 7 -27 16 -35
20 -8 4 -103 59 -210 123 -603 361 -571 343 -586 323 -8 -10 -19 -27 -24 -38
-5 -11 -50 -85 -99 -165 -49 -80 -147 -239 -218 -355 -70 -115 -151 -248 -180
-295 -78 -128 -136 -222 -153 -251 -8 -14 -60 -99 -115 -188 -55 -89 -107
-174 -116 -189 -9 -15 -60 -99 -114 -187 -54 -88 -148 -241 -208 -340 -60 -99
-118 -192 -128 -207 -11 -14 -19 -28 -19 -31 0 -3 -28 -50 -61 -104 -50 -79
-171 -279 -185 -304 -2 -3 101 -68 229 -144 128 -76 240 -144 250 -151 16 -10
-27 -49 -370 -334 -213 -177 -399 -332 -413 -344 -14 -11 -77 -64 -140 -116
-63 -52 -126 -105 -140 -116 -14 -12 -119 -100 -235 -195 -115 -95 -212 -176
-215 -179 -3 -3 -57 -48 -120 -100 -63 -52 -117 -97 -120 -100 -3 -3 -30 -25
-60 -50 -30 -25 -64 -52 -75 -62 -11 -9 -92 -76 -180 -149 -88 -72 -176 -146
-196 -163 -20 -17 -55 -47 -80 -66 -24 -19 -77 -64 -119 -98 -99 -84 -101 -86
-200 -168 -47 -38 -231 -192 -410 -340 -320 -266 -773 -642 -859 -713 -24 -20
-53 -44 -65 -54 -24 -22 -39 -34 -282 -235 -99 -82 -192 -159 -205 -170 -25
-21 -326 -271 -394 -327 -51 -43 -469 -389 -785 -652 -135 -112 -252 -209
-260 -216 -30 -24 -255 -212 -266 -222 -7 -5 -31 -26 -55 -45 -56 -46 -232
-191 -289 -240 -38 -32 -503 -418 -649 -539 -24 -20 -49 -40 -55 -46 -6 -5
-32 -27 -58 -48 -26 -21 -53 -43 -60 -50 -7 -7 -49 -41 -93 -77 -44 -36 -91
-75 -105 -87 -14 -11 -126 -105 -250 -208 -260 -215 -297 -246 -327 -272 -12
-10 -30 -25 -40 -33 -113 -94 -261 -216 -273 -227 -8 -7 -35 -30 -60 -50 -25
-21 -66 -55 -90 -75 -25 -20 -146 -121 -270 -223 -124 -102 -236 -196 -250
-208 -14 -13 -61 -52 -105 -87 -44 -35 -82 -67 -85 -70 -3 -3 -32 -27 -65 -55
-33 -27 -62 -52 -65 -55 -3 -3 -39 -32 -80 -65 -41 -32 -105 -84 -141 -115
-36 -30 -87 -73 -114 -95 -27 -22 -95 -78 -151 -125 -55 -47 -121 -101 -145
-121 -55 -45 -287 -238 -314 -261 -23 -19 -1099 -912 -1164 -966 -25 -21 -49
-42 -55 -47 -6 -6 -33 -28 -61 -51 -27 -22 -295 -245 -595 -494 -300 -248
-563 -467 -585 -485 -22 -19 -182 -151 -355 -295 -354 -294 -335 -278 -594
-493 -105 -87 -215 -179 -243 -203 l-53 -46 59 -66 c32 -37 98 -112 146 -167
48 -55 104 -118 124 -140 20 -22 63 -71 96 -110 33 -38 69 -79 80 -91 18 -18
86 -95 145 -164 23 -27 36 -42 146 -165 39 -44 82 -93 95 -109 13 -16 40 -46
59 -67 19 -20 55 -61 80 -91 25 -29 61 -71 81 -93 19 -22 51 -58 70 -79 19
-21 39 -44 44 -50 6 -6 40 -45 76 -86 36 -41 183 -208 325 -370 143 -162 271
-308 284 -324 14 -16 36 -41 50 -56 14 -14 52 -57 85 -96 32 -38 66 -76 75
-85 8 -9 26 -29 40 -45 68 -79 225 -260 230 -264 3 -3 103 -115 220 -250 118
-135 217 -247 220 -250 3 -3 23 -26 45 -51 22 -25 65 -73 95 -108 30 -34 66
-75 80 -90 14 -16 50 -57 81 -92 31 -35 94 -107 140 -159 89 -101 106 -121
139 -160 12 -14 48 -54 80 -90 32 -36 129 -146 215 -245 87 -99 172 -196 189
-215 18 -19 83 -93 146 -165 62 -71 119 -135 124 -141 6 -6 34 -37 61 -69 28
-32 55 -63 60 -69 18 -20 218 -247 365 -416 80 -91 147 -167 150 -170 3 -3 39
-43 80 -90 41 -47 80 -90 85 -96 6 -6 35 -40 65 -75 50 -57 86 -99 184 -209
17 -19 60 -69 96 -110 36 -41 70 -80 75 -86 16 -17 120 -135 290 -329 87 -99
186 -211 220 -250 34 -38 135 -153 225 -255 89 -102 174 -199 189 -215 14 -17
55 -64 91 -105 36 -41 67 -77 70 -80 3 -3 35 -39 70 -80 36 -41 74 -84 85 -95
11 -12 45 -50 75 -85 30 -35 64 -74 75 -86 11 -12 45 -50 75 -85 71 -82 143
-164 189 -214 20 -23 63 -72 97 -110 33 -39 99 -113 145 -166 46 -52 111 -126
144 -164 33 -38 80 -92 105 -120 59 -67 128 -145 365 -415 109 -124 228 -259
265 -300 37 -41 82 -93 101 -115 19 -22 46 -53 61 -70 l27 -30 -24 -20 c-41
-34 -95 -114 -95 -140 0 -53 48 -130 87 -140 70 -16 145 -95 178 -186 9 -24
20 -51 25 -60 9 -17 6 -426 -3 -464 -2 -11 -8 -42 -11 -70 -13 -91 -43 -179
-112 -332 -8 -17 -14 -34 -14 -37 0 -3 -36 -79 -80 -168 -45 -89 -79 -167 -77
-172 2 -6 -3 -33 -13 -61 l-16 -49 32 -33 c19 -18 39 -34 46 -34 62 -7 88 -4
139 15 70 26 88 48 93 113 17 218 20 242 47 317 16 43 39 102 51 130 40 89
194 390 219 426 27 40 81 113 89 120 3 3 13 17 22 31 12 19 28 28 60 32 23 3
45 2 48 -3 3 -4 30 -37 61 -71 31 -35 94 -107 140 -159 45 -52 88 -100 93
-106 6 -6 32 -35 58 -65 25 -30 98 -112 161 -184 86 -97 112 -133 104 -141 -7
-6 -48 -31 -92 -54 -44 -24 -108 -60 -142 -81 -54 -32 -179 -89 -197 -89 -8 0
-169 -75 -228 -106 -50 -26 -172 -56 -305 -74 -45 -6 -141 -31 -215 -55 -73
-24 -149 -47 -168 -50 -19 -3 -51 -10 -70 -15 -19 -4 -53 -11 -75 -14 -22 -3
-85 -12 -140 -21 -55 -9 -109 -18 -120 -20 -100 -14 -183 -26 -205 -30 -8 -2
-42 -6 -75 -9 -147 -17 -272 -67 -307 -124 -60 -98 8 -187 87 -114 74 66 90
73 220 97 44 8 89 17 100 19 18 3 79 11 180 22 22 3 69 7 105 9 208 15 246 21
340 50 25 7 65 16 90 19 25 3 56 8 70 11 14 3 41 8 60 11 19 2 42 7 50 9 8 2
31 7 50 10 19 3 51 10 70 15 19 5 55 12 80 15 81 11 104 16 210 40 8 2 48 15
87 29 40 14 79 26 87 26 8 0 16 4 18 10 2 5 53 27 114 49 249 88 378 148 449
208 l40 34 40 -43 c72 -79 218 -244 355 -402 14 -16 30 -34 35 -40 6 -6 109
-123 230 -261 120 -137 224 -255 230 -261 5 -6 35 -39 65 -74 30 -35 64 -74
75 -86 11 -12 43 -48 70 -80 28 -31 55 -62 60 -68 6 -6 39 -44 75 -85 36 -41
72 -82 80 -91 8 -9 42 -47 75 -85 33 -38 82 -94 109 -124 27 -31 61 -69 75
-86 55 -62 256 -290 266 -301 5 -6 35 -39 65 -74 30 -35 75 -87 100 -115 25
-28 68 -77 95 -109 28 -32 57 -66 66 -75 9 -9 53 -59 99 -111 76 -88 191 -218
215 -244 6 -6 73 -83 149 -171 77 -88 144 -164 150 -170 6 -5 26 -28 45 -50
18 -22 61 -71 95 -109 33 -39 81 -93 106 -121 25 -28 75 -85 111 -126 66 -74
118 -133 213 -243 28 -32 60 -68 71 -80 11 -12 49 -55 85 -96 35 -41 71 -82
80 -91 8 -9 26 -29 40 -45 84 -98 157 -181 170 -194 8 -8 40 -44 70 -80 30
-36 60 -69 66 -75 5 -5 57 -64 115 -130 57 -66 118 -136 135 -155 107 -121
361 -410 483 -550 79 -91 149 -169 155 -175 6 -5 38 -41 71 -80 50 -59 224
-256 505 -575 48 -54 235 -267 339 -385 14 -16 91 -104 171 -195 79 -91 147
-167 150 -170 3 -3 48 -54 100 -115 52 -60 102 -116 110 -125 8 -9 29 -32 45
-51 17 -19 62 -70 101 -114 39 -44 84 -95 100 -114 16 -19 36 -42 44 -51 8 -8
60 -67 115 -130 55 -63 102 -117 105 -120 3 -3 53 -59 110 -125 58 -66 110
-125 115 -131 10 -11 90 -102 179 -202 25 -29 46 -50 46 -47 0 3 -32 65 -71
138 -39 72 -89 166 -112 207 -90 168 -109 204 -217 405 -62 116 -143 266 -180
335 -37 69 -87 161 -110 205 -24 44 -53 98 -65 120 -12 22 -43 81 -70 130 -80
150 -196 367 -225 420 -15 28 -45 84 -67 125 -192 359 -421 784 -444 826 -15
28 -45 84 -67 125 -22 41 -88 164 -147 274 -162 301 -168 313 -220 410 -27 50
-58 108 -70 130 -12 22 -43 78 -67 125 -25 47 -57 105 -70 130 -14 25 -47 86
-73 135 -67 125 -113 211 -145 270 -15 28 -56 104 -90 170 -35 66 -66 125 -70
130 -4 6 -33 60 -65 120 -32 61 -61 115 -65 120 -4 6 -38 69 -75 140 -38 72
-88 165 -112 207 -23 43 -43 79 -43 82 0 2 -17 35 -38 73 -22 37 -63 113 -92
168 -29 55 -65 123 -80 150 -33 61 -81 150 -145 270 -26 50 -56 104 -65 120
-10 17 -40 73 -67 125 -50 95 -101 190 -153 285 -15 28 -46 85 -69 128 -22 42
-60 112 -82 155 -23 42 -53 97 -67 122 -13 25 -49 92 -80 150 -30 58 -59 109
-63 114 -10 12 4 39 51 96 20 25 54 72 76 105 21 33 42 65 46 70 24 30 58 89
89 155 31 65 51 89 140 171 118 110 160 146 207 178 27 19 32 20 32 6 0 -39
58 -67 109 -53 55 16 88 46 100 92 21 85 194 238 307 272 63 19 114 17 140 -4
12 -9 45 -52 74 -94 30 -43 57 -78 61 -78 4 0 10 -9 14 -19 3 -10 19 -24 35
-31 26 -11 86 -67 179 -170 l32 -35 -32 60 c-17 33 -36 66 -42 73 -24 30 4 19
59 -24 128 -100 129 -100 62 -9 -20 28 -37 54 -38 59 0 5 23 18 53 31 132 53
305 184 308 232 2 33 -2 48 -19 60 -29 23 -60 14 -125 -36 -62 -48 -183 -119
-238 -140 -23 -8 -31 -5 -62 25 -19 19 -38 47 -42 62 -3 15 -19 47 -35 72 -16
25 -32 61 -35 80 -8 44 -29 68 -83 92 -76 34 -153 23 -265 -37 -36 -19 -68
-35 -71 -35 -8 0 32 56 78 109 33 40 68 113 71 152 1 14 21 54 44 87 22 34 41
64 41 67 0 4 -21 -12 -46 -34 -26 -23 -50 -41 -53 -41 -3 0 -15 13 -26 30 -23
35 -47 42 -98 31 -45 -11 -60 -22 -89 -70 -12 -20 -51 -74 -86 -120 -66 -87
-78 -122 -48 -144 15 -11 10 -23 -50 -112 -36 -55 -85 -118 -108 -140 -79 -74
-225 -206 -250 -226 l-25 -20 18 43 c11 24 22 66 26 93 3 28 9 67 12 88 7 51
-3 84 -33 112 l-25 23 18 54 c33 95 4 195 -72 254 -45 34 -85 36 -180 8 -44
-13 -94 -26 -112 -28 -34 -5 -199 -74 -273 -114 -24 -14 -73 -47 -107 -74 -36
-28 -63 -44 -63 -36 -1 7 -8 0 -16 -15 -34 -62 -168 -168 -193 -153 -5 3 -24
34 -41 68 -18 35 -46 88 -63 118 -16 30 -50 93 -75 140 -25 47 -54 100 -64
119 l-19 34 31 -27 c27 -22 39 -25 77 -21 25 2 54 12 64 21 10 9 33 18 51 20
63 7 129 106 123 184 -4 49 -35 110 -59 115 -60 12 -127 11 -137 -1 -6 -8 -17
-14 -24 -14 -21 0 -85 -72 -111 -126 -14 -30 -26 -70 -26 -89 0 -20 -1 -35 -3
-33 -2 2 -20 35 -40 73 -21 39 -52 97 -70 130 -18 33 -50 94 -72 135 -23 41
-55 102 -73 135 -40 74 -87 161 -152 285 -28 52 -54 100 -58 105 -4 6 -35 64
-70 130 -34 66 -76 145 -93 175 -36 67 -71 131 -124 230 -22 41 -56 104 -75
140 -20 36 -59 110 -88 165 -29 55 -61 114 -70 130 -10 17 -41 75 -70 130 -29
55 -56 105 -60 110 -4 6 -35 64 -70 130 -78 149 -127 241 -150 280 -10 17 -40
73 -67 125 -28 52 -61 115 -75 140 -14 25 -49 90 -78 145 -29 55 -65 123 -80
150 -15 28 -44 80 -64 117 -20 38 -51 96 -70 130 -18 35 -52 98 -75 141 -87
163 -121 226 -186 347 -70 129 -97 180 -180 335 -26 50 -61 115 -78 145 -68
125 -97 180 -142 265 -27 50 -75 140 -108 200 -33 61 -82 153 -110 205 -27 52
-76 142 -107 200 -32 58 -75 139 -97 180 -22 41 -57 107 -78 145 -21 39 -58
108 -83 155 -24 47 -53 99 -62 115 -10 17 -41 75 -70 130 -29 55 -65 123 -80
150 -15 28 -46 86 -70 130 -24 44 -55 103 -70 130 -15 28 -96 178 -180 335
-203 379 -218 407 -250 465 -15 28 -49 91 -75 140 -26 50 -62 117 -80 150 -18
33 -49 92 -70 130 -21 39 -52 97 -70 130 -18 33 -54 101 -80 150 -51 96 -96
179 -140 260 -16 28 -46 84 -68 125 -46 87 -108 204 -147 275 -15 28 -96 178
-180 335 -84 157 -165 308 -180 335 -15 28 -46 86 -70 130 -23 44 -57 107 -75
140 -18 33 -65 121 -105 195 -40 74 -89 167 -110 205 -21 39 -88 165 -150 280
-62 116 -125 233 -140 260 -34 62 -93 172 -155 290 -26 50 -56 104 -65 120 -9
17 -39 71 -65 120 -26 50 -60 113 -75 140 -15 28 -49 91 -75 140 -26 50 -58
108 -70 130 -12 22 -50 94 -85 160 -35 66 -66 125 -70 130 -5 6 -30 53 -58
105 -87 167 -134 255 -142 265 -4 6 -40 73 -80 150 -40 77 -76 145 -80 150 -4
6 -29 51 -55 100 -71 133 -125 234 -155 290 -15 28 -64 120 -110 205 -46 85
-95 178 -110 205 -15 28 -51 95 -81 150 -29 55 -74 140 -101 189 -26 49 -48
92 -48 95 0 3 12 13 28 22 59 34 1667 974 1723 1008 15 9 53 31 86 50 32 18
99 57 148 86 50 29 180 106 290 170 110 65 220 129 245 143 25 14 56 32 70 42
14 9 98 59 188 111 213 123 186 107 502 291 151 89 300 175 330 193 220 131
262 155 268 155 5 0 13 5 20 12 7 7 37 26 67 43 30 16 148 85 262 152 115 66
379 221 588 343 209 123 390 229 402 237 19 13 9 -17 -58 -184 -44 -109 -86
-211 -94 -228 -7 -16 -88 -214 -180 -440 -92 -225 -173 -423 -181 -440 -15
-36 -60 -147 -149 -367 -36 -90 -70 -172 -75 -183 -5 -11 -20 -48 -34 -82 -95
-231 -124 -303 -173 -423 -178 -439 -349 -948 -462 -1377 -22 -84 -43 -163
-45 -175 -5 -23 -12 -50 -20 -85 -11 -41 -75 -341 -81 -373 -3 -19 -12 -69
-20 -110 -8 -41 -17 -91 -19 -110 -3 -19 -8 -46 -10 -60 -9 -46 -25 -155 -31
-205 -3 -27 -8 -61 -10 -75 -2 -14 -7 -52 -10 -85 -3 -33 -8 -71 -10 -85 -2
-14 -6 -59 -10 -100 -3 -41 -8 -91 -10 -110 -27 -229 -27 -1052 0 -1240 2 -14
6 -59 10 -100 4 -41 8 -86 10 -100 2 -14 6 -50 10 -80 10 -84 22 -165 31 -215
2 -10 6 -37 10 -60 10 -73 55 -298 81 -405 13 -58 26 -112 28 -120 75 -314
246 -801 405 -1150 50 -110 200 -407 270 -535 194 -357 499 -820 727 -1105 24
-30 50 -62 56 -70 48 -60 142 -176 147 -180 3 -3 35 -39 72 -82 210 -243 480
-517 708 -718 47 -41 87 -77 90 -80 50 -50 327 -275 500 -405 129 -98 180
-134 395 -278 232 -155 255 -170 455 -286 96 -56 182 -106 190 -111 77 -46
354 -191 517 -271 788 -386 1655 -693 2468 -873 88 -19 176 -38 195 -41 19 -3
67 -12 105 -20 39 -8 86 -17 105 -20 19 -3 42 -8 50 -10 8 -2 40 -7 70 -10 30
-4 57 -8 60 -10 3 -1 30 -6 61 -9 31 -4 65 -8 75 -10 11 -2 44 -7 74 -11 30
-3 66 -8 80 -10 122 -17 315 -35 515 -50 357 -25 907 -21 1245 10 30 2 88 7
127 10 40 4 80 8 90 9 10 2 47 7 83 10 36 4 76 9 90 11 14 2 45 7 70 10 25 3
99 14 165 25 66 11 138 22 160 25 22 3 47 8 55 11 8 3 32 8 53 11 44 6 52 7
87 16 14 4 36 9 50 11 56 9 313 70 435 103 72 19 137 37 145 39 8 2 74 21 145
42 314 94 665 225 975 364 82 37 434 215 488 247 29 17 55 31 58 31 2 0 23 12
47 27 23 15 58 36 77 46 19 10 49 28 65 38 62 40 291 189 305 198 43 30 137
97 150 108 8 7 54 41 101 77 105 78 93 68 256 206 296 248 555 508 812 815
357 426 681 919 943 1436 131 258 245 511 357 789 35 85 69 169 76 185 7 17
43 104 80 195 37 91 73 179 81 195 7 17 23 55 34 85 12 30 28 69 35 85 7 17
32 77 55 135 23 58 48 119 55 135 8 17 75 181 150 365 75 184 147 360 160 390
13 30 35 84 49 120 63 160 74 183 80 164 3 -11 24 -89 45 -174 22 -85 52 -200
66 -255 14 -55 27 -107 29 -115 14 -57 154 -610 183 -720 19 -74 36 -142 38
-150 2 -8 29 -114 60 -235 31 -121 58 -227 60 -235 13 -58 85 -342 89 -349 3
-4 8 -23 11 -42 3 -19 14 -65 25 -104 19 -70 98 -381 105 -413 2 -9 15 -62 30
-117 14 -55 28 -107 30 -115 2 -11 100 -395 131 -515 3 -11 7 -31 10 -45 3
-14 8 -34 11 -45 7 -22 9 -29 16 -60 3 -11 13 -49 22 -85 9 -36 19 -72 20 -80
2 -8 11 -42 20 -75 9 -33 18 -67 20 -76 4 -19 78 -310 191 -752 2 -9 6 -26 9
-38 2 -11 7 -29 10 -39 3 -10 8 -27 10 -37 5 -28 224 -891 241 -953 20 -72 29
-105 58 -225 14 -55 36 -145 51 -200 14 -55 28 -108 30 -118 6 -25 94 -371
111 -437 9 -30 17 -63 19 -73 2 -10 32 -127 66 -260 33 -133 63 -251 66 -262
9 -40 11 -50 13 -50 1 0 3 -7 5 -15 1 -8 15 -62 29 -120 15 -58 29 -112 31
-120 2 -8 13 -53 25 -100 12 -47 23 -92 25 -100 2 -8 17 -69 35 -135 17 -66
33 -127 35 -135 27 -107 50 -200 67 -268 18 -74 22 -82 36 -70 9 7 138 114
287 238 148 123 278 231 289 240 10 8 23 20 30 25 9 8 143 120 211 176 11 10
43 36 70 59 28 23 59 49 70 59 107 88 261 217 265 221 6 6 343 286 420 349 30
25 69 58 86 73 17 16 60 52 96 81 51 41 426 353 523 435 11 10 61 51 110 92
50 41 92 77 95 80 3 3 30 25 60 50 30 25 57 47 60 50 3 3 41 35 85 70 44 36
86 70 93 77 7 7 34 29 60 50 26 21 49 41 52 44 3 3 88 75 190 159 102 85 187
156 190 159 3 4 30 26 60 51 30 25 66 55 80 66 14 12 194 162 400 334 206 171
386 322 400 333 22 19 168 141 225 188 22 19 85 72 161 135 27 23 110 92 184
153 74 61 155 129 180 150 25 21 146 123 270 226 124 103 236 197 250 208 14
12 93 78 175 147 83 68 159 132 170 141 11 10 70 58 130 109 129 108 134 112
205 170 30 25 57 47 60 50 3 3 86 73 185 155 99 82 185 154 191 160 7 5 31 26
54 44 23 19 48 40 54 46 6 5 49 42 96 80 47 39 96 80 110 91 14 12 99 84 190
159 91 76 176 147 190 159 14 11 79 66 145 120 66 55 122 102 125 105 3 4 26
23 52 44 26 21 53 43 60 50 7 7 65 55 128 107 63 52 117 97 120 100 3 3 41 35
84 70 44 36 94 77 110 92 17 15 270 225 561 468 292 243 530 446 530 450 0 8
-15 27 -144 179 -66 80 -70 84 -141 171 -25 30 -53 63 -64 75 -10 11 -30 36
-45 55 -14 18 -37 46 -51 61 -14 14 -32 35 -40 45 -25 32 -424 509 -430 514
-3 3 -48 57 -100 120 -52 63 -97 117 -100 120 -3 3 -37 43 -75 90 -39 47 -82
99 -96 115 -15 17 -54 64 -88 105 -34 41 -72 86 -84 100 -12 14 -42 50 -67 80
-25 30 -47 57 -50 60 -3 3 -62 72 -130 155 -69 82 -133 159 -142 170 -9 11
-27 31 -39 45 -11 14 -38 45 -58 70 -20 25 -38 47 -42 50 -3 3 -110 131 -239
285 -128 154 -247 296 -264 316 -33 38 -45 53 -116 139 -25 30 -47 57 -50 60
-3 3 -39 46 -80 95 -41 50 -79 95 -85 101 -5 6 -28 32 -50 59 -22 27 -52 62
-66 79 -14 17 -35 42 -47 56 -11 14 -58 70 -104 124 -46 55 -134 161 -196 235
-62 75 -121 145 -130 156 -9 11 -124 148 -255 305 -131 157 -259 309 -285 339
-26 30 -56 66 -67 80 -11 14 -25 32 -32 39 -7 7 -29 34 -50 60 -21 26 -40 49
-43 52 -3 3 -41 48 -85 100 -44 52 -90 106 -101 120 -30 35 -396 473 -592 709
-90 108 -176 210 -191 226 -14 17 -69 82 -121 145 -52 63 -97 117 -100 120 -3
3 -25 30 -50 60 -57 69 -82 100 -95 114 -6 6 -46 54 -90 106 -44 52 -82 97
-85 100 -3 3 -35 41 -70 85 -36 44 -67 82 -70 85 -7 7 -110 130 -390 465 -129
154 -244 291 -256 305 -12 14 -46 54 -75 90 -30 36 -113 135 -184 220 -72 85
-137 163 -145 173 -8 11 -19 24 -25 31 -5 6 -44 52 -85 101 -41 50 -80 95 -86
101 -5 6 -26 31 -45 54 -18 24 -43 53 -54 65 -30 34 -50 59 -155 185 -52 63
-105 126 -116 140 -45 52 -662 789 -729 870 -38 47 -75 91 -82 98 -7 7 -29 34
-50 60 -21 26 -40 49 -43 52 -3 3 -30 34 -60 70 -30 36 -57 67 -60 70 -5 5
-79 95 -110 134 -8 10 -25 30 -38 44 -13 14 -35 41 -50 60 -15 19 -32 40 -37
46 -6 6 -137 162 -291 346 -154 184 -320 382 -368 440 -49 58 -154 184 -234
280 -81 96 -149 177 -152 180 -3 3 -24 28 -45 55 -22 28 -45 55 -51 60 -6 6
-100 118 -210 250 -109 132 -203 245 -209 251 -5 6 -86 103 -180 214 -93 112
-246 294 -338 404 -195 232 -188 224 -247 296 -25 30 -57 68 -71 85 -15 16
-79 93 -144 170 -64 77 -124 149 -133 160 -36 42 -592 706 -686 820 -55 66
-103 122 -106 125 -3 3 -61 73 -130 155 -68 83 -134 161 -146 175 -12 14 -73
86 -134 160 -130 157 -191 229 -205 244 -10 11 -119 141 -200 240 -22 27 -45
54 -51 60 -5 6 -115 137 -243 291 -127 154 -240 289 -249 300 -73 87 -720 859
-752 899 -8 10 -20 23 -25 30 -8 9 -136 161 -237 281 -46 55 -209 250 -439
525 -140 168 -376 449 -523 625 -147 176 -278 331 -289 345 -12 14 -44 52 -72
85 -27 33 -54 65 -60 71 -5 6 -72 86 -148 178 -77 91 -140 166 -140 166 -1 0
-15 -11 -30 -24z m1217 -4653 c26 -104 49 -195 51 -203 2 -8 11 -44 20 -80 9
-36 19 -73 21 -83 2 -10 6 -27 9 -37 3 -10 8 -27 10 -37 2 -10 11 -45 20 -78
8 -33 17 -67 19 -75 2 -8 30 -116 61 -240 31 -124 58 -232 60 -240 2 -8 17
-67 33 -130 47 -181 233 -913 237 -930 2 -8 18 -69 35 -135 17 -66 33 -127 35
-136 2 -9 8 -33 14 -54 l10 -37 -24 16 c-39 26 -89 55 -105 63 -8 3 -26 14
-40 23 -14 10 -41 26 -60 37 -19 10 -154 90 -300 177 -146 88 -278 167 -295
176 -16 10 -149 88 -295 175 -548 326 -910 541 -1060 630 -149 88 -214 126
-255 152 -11 7 -57 33 -102 60 l-81 47 31 20 c18 10 46 27 62 36 17 9 98 57
180 105 83 49 161 95 175 102 14 8 39 22 55 32 41 25 439 258 478 280 18 10
122 72 232 136 110 65 220 129 245 143 25 14 61 35 80 47 19 12 67 40 105 62
39 23 117 68 174 102 58 34 108 61 111 61 3 0 27 -84 54 -187z m-4981 -2816
c57 -35 111 -67 118 -71 8 -3 28 -14 44 -25 98 -60 271 -165 298 -180 48 -27
907 -540 947 -566 19 -12 136 -82 260 -156 124 -73 439 -261 700 -417 261
-157 489 -292 505 -302 17 -9 82 -48 145 -87 63 -38 122 -72 130 -76 8 -4 27
-15 42 -25 31 -19 491 -296 547 -328 20 -12 151 -90 291 -174 140 -84 267
-160 282 -169 15 -9 106 -63 203 -121 97 -58 189 -113 205 -122 53 -31 801
-478 1005 -601 110 -66 214 -128 230 -138 75 -44 108 -60 115 -52 6 6 208 341
245 405 67 115 137 229 140 226 2 -1 12 -39 23 -83 23 -94 165 -649 259 -1015
36 -140 72 -282 79 -315 8 -33 16 -67 18 -75 8 -28 77 -295 81 -310 4 -17 192
-757 296 -1165 39 -154 72 -287 74 -296 2 -9 8 -34 14 -55 6 -22 11 -42 11
-45 0 -6 -139 49 -358 142 -51 21 -96 39 -101 39 -4 0 -21 6 -37 14 -28 14
-422 176 -759 313 -88 35 -207 84 -265 108 -132 55 -810 333 -950 390 -185 75
-654 267 -685 280 -16 8 -59 25 -95 40 -36 14 -74 30 -85 34 -11 5 -65 27
-120 50 -293 119 -572 233 -590 241 -11 5 -171 70 -355 145 -184 75 -348 143
-364 151 -16 8 -33 14 -37 14 -5 0 -32 11 -61 24 -29 13 -199 83 -378 156
-339 138 -448 182 -565 231 -73 30 -965 395 -1285 526 -167 68 -269 110 -325
134 -11 5 -110 45 -220 89 -110 45 -215 88 -232 96 -18 8 -61 25 -95 39 -35
13 -133 52 -218 88 -85 35 -240 99 -345 141 -104 43 -203 83 -220 91 -16 7
-77 32 -135 55 -58 22 -118 47 -135 55 -16 7 -140 58 -275 113 -553 226 -938
384 -991 407 -31 14 -59 25 -62 25 -4 0 -30 11 -59 23 -29 13 -130 55 -225 93
-95 38 -169 72 -165 76 5 5 405 239 576 338 17 10 83 48 146 85 63 38 167 98
230 135 63 37 210 122 325 190 116 68 381 223 590 345 209 122 578 338 820
480 242 142 465 272 495 290 30 18 87 51 125 73 39 23 71 41 72 41 0 1 48 -28
106 -62z m-4193 -5032 c85 -35 234 -95 330 -135 96 -40 236 -97 310 -127 74
-30 149 -61 165 -68 32 -13 275 -113 460 -188 61 -25 250 -102 420 -172 171
-70 357 -147 415 -170 58 -23 222 -91 365 -149 143 -59 316 -130 385 -158 69
-28 150 -61 180 -74 30 -13 172 -71 315 -129 143 -58 283 -115 310 -127 28
-11 64 -27 80 -34 17 -7 48 -19 70 -27 22 -8 123 -50 225 -92 102 -42 257
-106 345 -142 88 -35 174 -71 190 -78 17 -7 66 -27 110 -45 44 -18 94 -38 110
-45 17 -7 413 -169 880 -360 468 -191 864 -353 880 -360 28 -13 98 -41 365
-150 63 -25 128 -53 144 -61 16 -8 33 -14 38 -14 5 0 28 -9 51 -19 23 -11 116
-49 207 -86 91 -37 181 -74 200 -82 19 -8 45 -19 58 -24 12 -5 32 -13 45 -19
12 -5 200 -82 417 -171 217 -89 481 -196 585 -239 105 -43 291 -119 415 -169
124 -50 234 -96 245 -101 11 -5 88 -37 170 -70 83 -33 170 -69 195 -80 25 -11
124 -51 220 -90 185 -74 299 -121 365 -150 22 -9 145 -59 272 -111 128 -52
233 -98 233 -103 0 -8 -144 -367 -185 -461 -7 -16 -64 -154 -125 -305 -155
-382 -228 -557 -250 -610 -11 -25 -101 -245 -201 -490 -99 -245 -187 -458
-194 -475 -15 -36 -54 -131 -136 -330 -172 -420 -385 -780 -657 -1108 -78 -95
-315 -337 -412 -421 -110 -95 -454 -346 -476 -346 -2 0 -29 -16 -60 -36 -63
-41 -345 -185 -444 -228 -144 -63 -474 -182 -553 -201 -12 -3 -91 -23 -175
-45 -84 -22 -199 -49 -255 -61 -56 -11 -111 -23 -122 -25 -30 -7 -323 -52
-377 -58 -27 -3 -69 -8 -95 -11 -27 -3 -64 -8 -83 -10 -31 -4 -88 -8 -290 -21
-149 -9 -617 -3 -780 10 -136 11 -195 17 -230 21 -19 2 -60 7 -90 10 -30 3
-66 8 -80 10 -14 2 -45 7 -70 10 -59 8 -158 24 -190 30 -14 3 -38 7 -55 10
-16 2 -68 11 -115 20 -47 10 -95 19 -107 21 -97 18 -388 91 -573 144 -319 91
-842 279 -1087 391 -24 10 -45 19 -47 19 -24 0 -768 357 -774 372 -2 4 -9 8
-15 8 -13 0 -202 104 -375 207 -68 40 -126 73 -128 73 -3 0 -17 9 -32 19 -15
10 -94 63 -177 117 -710 463 -1263 989 -1666 1585 -35 52 -69 103 -75 114 -6
11 -29 49 -51 85 -199 325 -393 782 -513 1207 -29 104 -81 320 -94 393 -3 19
-8 46 -11 60 -5 24 -7 38 -20 134 -7 49 -16 115 -20 136 -2 9 -6 60 -10 115
-4 55 -9 120 -11 145 -4 64 -5 439 0 475 2 17 7 71 11 120 3 50 8 108 10 130
4 36 7 56 21 150 6 38 42 244 48 270 26 119 37 164 60 248 54 197 118 389 195
581 66 165 339 831 356 871 8 17 95 230 195 475 100 245 188 459 195 475 16
37 52 125 75 185 41 104 112 278 131 317 10 24 19 47 19 52 0 5 55 -13 123
-41 67 -27 192 -78 277 -113z m-4363 -14629 c7 -12 61 -74 185 -213 45 -50 47
-55 35 -81 -20 -46 -157 -314 -158 -310 0 2 -2 26 -3 53 -8 138 -19 233 -32
257 -8 16 -10 28 -5 28 15 0 -26 138 -73 252 -5 11 -2 18 11 21 30 8 32 8 40
-7z m4712 -1028 c6 -18 23 -45 38 -60 15 -15 25 -29 22 -32 -2 -2 -40 -17 -84
-34 -44 -17 -123 -49 -175 -70 -64 -27 -105 -38 -126 -35 -19 3 -44 -3 -67
-16 -21 -12 -40 -21 -43 -21 -2 0 10 21 28 46 88 124 165 184 295 229 89 32
99 31 112 -7z m31 -310 c14 -15 19 -30 15 -43 -3 -11 -12 -50 -20 -87 -24
-110 -128 -335 -183 -395 -26 -28 -69 -81 -97 -116 -27 -36 -53 -66 -56 -66
-3 -1 -18 21 -32 48 -23 45 -62 117 -137 256 -15 28 -51 93 -79 147 l-52 96
33 11 c18 6 53 14 78 17 43 6 212 61 275 89 153 69 220 80 255 43z"/>
<path d="M19085 10794 c-83 -20 -81 -19 -165 -49 -115 -41 -431 -191 -438
-207 -2 -5 -8 -8 -14 -8 -15 0 -166 -102 -203 -137 -66 -61 -85 -92 -85 -139
0 -70 38 -133 82 -135 13 0 38 -6 56 -12 l32 -12 -57 -45 c-56 -44 -284 -212
-372 -274 -248 -175 -499 -410 -566 -531 -89 -159 -103 -260 -52 -366 16 -31
42 -70 60 -87 35 -33 40 -34 261 -56 36 -4 133 16 166 34 14 7 49 12 81 11 46
-2 62 2 85 22 16 13 49 29 74 36 25 7 65 28 90 46 25 18 88 54 140 80 52 26
113 57 135 70 22 13 54 26 71 30 17 3 40 14 51 24 30 29 114 84 166 111 27 14
66 40 87 58 21 17 41 32 44 32 2 0 72 44 153 98 81 54 198 125 258 156 61 32
118 65 128 73 9 9 17 14 17 11 0 -2 -32 -90 -71 -194 -39 -104 -93 -249 -120
-323 -28 -73 -56 -146 -65 -162 -8 -16 -12 -29 -9 -29 3 0 -2 -14 -10 -30 -9
-17 -13 -40 -10 -51 4 -11 -2 -50 -13 -87 -59 -198 -90 -406 -70 -477 15 -54
64 -70 131 -42 54 23 81 133 48 194 -10 19 -8 109 4 169 3 18 19 69 34 115 16
46 71 212 123 369 107 319 131 382 216 560 43 91 71 135 99 160 22 20 46 47
53 60 7 13 21 33 32 44 11 12 26 34 35 49 l14 29 172 -3 c95 -2 197 -7 227
-12 56 -9 85 -13 108 -16 7 -1 12 -17 12 -43 0 -54 11 -70 44 -70 35 0 54 17
66 61 33 119 -23 206 -146 228 -53 10 -85 10 -214 0 -47 -4 -123 -10 -170 -13
-47 -3 -87 -8 -89 -10 -3 -2 -14 5 -25 15 -27 25 -67 33 -93 18 -93 -54 -101
-56 -212 -63 -205 -11 -255 -11 -306 4 -27 8 -55 15 -61 16 -7 1 -18 7 -25 12
-8 6 -42 12 -76 13 -60 2 -63 1 -81 -28 -10 -17 -25 -56 -32 -87 -12 -49 -12
-60 1 -83 21 -37 57 -51 139 -55 62 -3 75 0 98 19 23 19 44 23 129 29 56 3
122 10 147 15 25 5 46 6 46 2 0 -17 -36 -55 -112 -117 -46 -38 -89 -75 -97
-82 -77 -73 -300 -233 -416 -297 -27 -15 -54 -31 -60 -35 -32 -24 -390 -206
-455 -230 -19 -7 -39 -17 -45 -21 -36 -27 -359 -139 -400 -139 -13 0 -26 -4
-30 -9 -3 -5 -31 -15 -63 -22 -31 -7 -64 -14 -72 -16 -29 -6 -180 -7 -186 0
-4 4 -7 26 -7 49 0 55 35 116 157 269 22 27 59 61 82 74 60 35 74 52 74 88 0
24 12 43 48 80 51 53 226 194 333 270 37 25 77 59 90 74 13 16 56 55 96 87
142 114 179 206 118 297 l-26 40 27 37 c15 20 43 52 63 70 43 38 293 163 387
192 71 21 124 26 124 10 0 -11 -71 -100 -140 -177 -47 -52 -55 -78 -31 -107
27 -32 70 -17 136 45 75 71 102 87 143 82 28 -3 47 2 77 23 64 42 90 81 89
134 -1 81 -13 142 -31 163 -41 45 -130 57 -238 31z"/>
<path d="M22525 10782 c-82 -7 -359 -79 -515 -133 -47 -17 -92 -32 -102 -34
-9 -2 -69 -26 -135 -53 -65 -27 -147 -62 -183 -77 -205 -84 -330 -173 -330
-233 0 -36 33 -127 59 -161 17 -23 20 -23 41 -8 16 11 29 13 46 7 39 -15 124
35 151 89 12 24 35 52 50 62 15 10 46 34 68 54 121 111 370 245 537 290 121
32 166 39 260 40 108 0 114 -8 89 -105 -24 -91 -61 -182 -77 -193 -7 -4 -23
-24 -35 -45 -13 -20 -31 -45 -40 -55 -9 -10 -22 -40 -29 -65 -15 -62 -68 -164
-146 -285 -35 -54 -64 -100 -64 -102 0 -2 -17 -32 -39 -67 -161 -262 -282
-480 -317 -574 -14 -38 -29 -73 -33 -79 -5 -5 -21 -44 -36 -85 -15 -41 -33
-84 -40 -96 -7 -11 -32 -76 -55 -145 -24 -68 -53 -149 -65 -179 -28 -68 -41
-148 -36 -232 1 -23 42 -49 78 -50 26 -1 108 43 125 66 3 5 9 30 13 54 4 25
18 70 32 101 19 41 26 74 27 126 2 59 8 83 42 155 22 47 53 114 68 150 63 145
270 553 346 679 44 73 80 137 80 141 0 5 3 10 8 12 4 2 27 37 51 78 59 99 246
382 293 443 20 26 63 101 95 165 53 106 58 123 58 182 0 115 -58 158 -216 163
-52 1 -107 1 -124 -1z"/>
<path d="M28908 10668 c-19 -7 -34 -24 -49 -59 -13 -27 -26 -49 -31 -49 -20 0
-103 -112 -91 -123 2 -3 -31 -58 -75 -123 -43 -66 -98 -153 -122 -194 -24 -41
-44 -77 -46 -79 -2 -2 -23 -5 -46 -7 -307 -23 -430 -19 -474 15 -42 33 -81 27
-120 -16 -41 -44 -53 -83 -43 -136 15 -86 78 -107 195 -67 95 33 233 61 327
67 l87 5 -36 -78 c-59 -129 -129 -302 -163 -406 -32 -95 -62 -138 -96 -138 -7
0 -45 -14 -86 -31 -41 -17 -93 -33 -116 -36 -39 -5 -43 -3 -62 28 -11 19 -25
58 -31 89 -17 83 -18 86 -48 101 -36 19 -42 28 -32 53 4 12 7 49 6 83 -1 57
-5 66 -36 99 -50 52 -77 63 -145 60 -47 -3 -81 -13 -159 -50 -54 -26 -111 -55
-126 -66 -25 -18 -29 -18 -71 -4 -24 9 -76 22 -115 29 -67 13 -111 19 -243 30
-35 3 -58 10 -63 20 -16 28 -46 37 -83 25 -18 -6 -60 -13 -93 -14 -69 -4 -100
-18 -107 -49 -8 -31 0 -124 15 -174 12 -38 11 -45 -11 -80 -21 -34 -87 -104
-135 -143 -66 -54 -144 -109 -171 -124 l-32 -16 -6 32 c-12 63 -12 73 -2 103
6 17 18 41 27 55 21 31 71 155 76 190 7 47 -11 83 -57 116 -25 17 -55 35 -68
39 -28 9 -111 -13 -118 -31 -5 -12 -19 -12 -88 0 -16 2 -55 7 -85 11 -103 11
-135 17 -175 35 -22 10 -64 21 -93 25 -51 7 -54 6 -85 -28 -31 -32 -37 -34
-98 -34 -68 0 -128 -18 -209 -61 -53 -29 -234 -152 -238 -162 -1 -4 -22 -33
-46 -66 -36 -49 -58 -66 -126 -102 -127 -67 -123 -66 -163 -26 -19 20 -38 48
-42 62 -3 15 -19 47 -35 72 -16 25 -31 61 -35 82 -14 76 -122 127 -224 104
-41 -10 -137 -53 -173 -78 -40 -28 -35 -14 22 58 65 83 100 146 104 188 2 19
22 61 45 94 49 73 52 86 9 46 -64 -58 -62 -58 -101 -19 -32 32 -38 34 -78 29
-49 -7 -70 -22 -102 -73 -12 -20 -50 -74 -85 -120 -66 -86 -79 -124 -49 -146
14 -10 12 -18 -19 -65 -107 -162 -109 -164 -216 -219 l-101 -52 -38 37 c-21
20 -40 48 -44 63 -4 14 -21 48 -38 75 -17 27 -30 58 -30 69 4 51 -79 113 -157
118 -63 4 -165 -32 -242 -84 -16 -10 -28 -15 -28 -12 0 4 27 41 60 84 62 80
106 164 95 182 -4 5 0 20 8 32 8 12 31 49 52 82 l38 60 -34 -30 c-80 -72 -72
-70 -112 -30 -33 33 -40 35 -74 29 -51 -9 -76 -26 -104 -71 -13 -21 -51 -74
-84 -118 -33 -44 -64 -86 -68 -92 -8 -12 8 -53 25 -64 4 -3 -35 -68 -87 -145
-116 -170 -145 -230 -152 -311 -6 -69 4 -88 57 -103 46 -13 131 34 145 80 17
57 34 82 104 150 78 76 162 129 229 142 96 20 110 13 184 -93 63 -90 95 -126
128 -144 25 -13 41 -29 151 -145 l52 -55 -33 60 c-18 33 -38 66 -43 73 -5 7
-8 15 -5 17 4 5 37 -18 98 -68 41 -34 83 -59 75 -46 -5 7 -28 40 -52 72 l-44
57 26 10 c40 15 45 13 45 -26 0 -47 14 -70 47 -79 72 -20 143 22 163 96 8 30
32 62 88 118 96 97 185 149 270 157 75 8 85 1 154 -97 29 -41 62 -85 75 -99
13 -14 23 -28 23 -31 0 -4 11 -10 24 -13 21 -5 77 -58 175 -166 l32 -35 -32
60 c-17 33 -36 66 -42 73 -5 7 -8 15 -5 17 4 4 51 -29 167 -119 21 -15 8 5
-46 77 -39 50 -42 58 -26 63 10 4 47 20 82 36 35 16 66 27 69 24 3 -4 2 -6 -2
-6 -17 0 36 -77 66 -95 43 -25 142 -29 234 -8 71 15 191 61 215 81 8 7 55 41
104 78 50 36 103 80 118 97 49 55 115 162 119 192 5 42 64 59 178 49 47 -4 88
-7 93 -6 11 3 9 -9 -19 -104 -20 -70 -24 -100 -19 -143 4 -29 7 -82 6 -117 0
-50 3 -64 14 -64 8 0 15 -5 15 -12 0 -17 48 -76 73 -90 27 -14 97 -28 97 -19
0 4 17 15 37 25 54 26 183 118 293 210 122 101 309 292 316 323 12 47 150 51
301 7 l51 -15 -32 -32 c-89 -88 -166 -211 -185 -298 -13 -56 9 -133 42 -151
75 -40 227 12 402 137 116 84 151 101 178 86 12 -7 48 -48 80 -92 55 -76 57
-82 40 -95 -16 -13 -15 -13 10 -4 20 7 39 6 70 -5 48 -17 83 -19 91 -6 3 5 29
15 58 21 41 10 167 56 233 86 6 2 10 -18 11 -49 1 -60 21 -101 62 -132 37 -27
131 -26 196 3 27 12 58 24 70 27 39 8 71 21 181 74 133 64 214 101 220 101 3
0 4 -3 3 -7 -3 -13 29 -67 51 -85 39 -33 83 -49 125 -47 23 2 47 0 53 -4 6 -4
13 -3 15 1 1 5 46 21 98 36 52 15 130 42 172 60 43 19 80 31 83 28 3 -3 5 -14
5 -24 0 -34 37 -93 72 -113 42 -25 143 -29 229 -9 76 17 188 59 215 79 10 8
57 43 104 77 47 34 100 78 119 98 51 53 111 148 119 189 7 31 13 37 50 48 42
12 133 11 227 -2 28 -4 51 -8 52 -9 1 -1 -38 -60 -88 -131 -108 -157 -140
-222 -146 -296 -6 -69 5 -92 51 -106 31 -10 42 -8 85 13 35 18 52 34 61 57 35
93 133 200 240 260 74 41 182 59 210 35 9 -7 48 -57 88 -110 40 -55 89 -108
110 -122 21 -13 76 -64 121 -113 80 -85 82 -86 56 -38 -16 28 -34 61 -42 73
-8 13 -13 26 -10 28 2 2 41 -25 87 -61 46 -36 85 -65 87 -65 5 0 -29 50 -70
102 -26 35 -27 39 -10 44 86 29 251 127 312 184 28 28 51 78 44 99 -8 23 -34
41 -59 41 -13 0 -52 -22 -87 -49 -62 -48 -184 -119 -238 -140 -24 -9 -31 -6
-62 25 -19 20 -38 48 -42 62 -3 15 -18 44 -31 66 -14 21 -32 59 -40 85 -16 56
-36 76 -98 100 -65 24 -135 13 -236 -38 -91 -46 -92 -42 -15 59 53 68 75 111
78 152 2 19 21 60 45 95 23 34 42 65 42 69 0 3 -20 -12 -45 -35 -44 -40 -65
-51 -65 -31 0 5 -12 20 -26 34 -22 19 -34 23 -67 19 -56 -6 -74 -18 -105 -66
-64 -99 -127 -177 -142 -177 -9 0 -41 4 -71 9 -30 6 -83 13 -119 16 -99 10
-122 14 -165 35 -22 10 -64 21 -93 25 -51 7 -54 6 -88 -29 -31 -32 -40 -36
-77 -33 -56 5 -141 -15 -202 -48 -110 -59 -261 -169 -285 -207 -13 -21 -38
-46 -55 -56 -58 -34 -170 -81 -205 -87 -19 -3 -48 -8 -65 -12 -59 -12 -128 1
-146 30 -7 11 16 107 28 116 4 3 32 32 61 63 56 61 63 87 37 137 -8 16 -28 34
-45 41 -20 8 -30 19 -30 33 0 21 0 21 -16 -1 -8 -12 -22 -22 -31 -22 -32 0
-83 -33 -110 -73 -15 -23 -38 -50 -50 -60 -13 -10 -23 -25 -23 -33 0 -8 -4
-22 -9 -32 -5 -9 -14 -36 -21 -60 -6 -24 -19 -46 -28 -50 -9 -3 -44 -21 -77
-40 -77 -44 -239 -107 -312 -122 -52 -11 -58 -10 -71 6 -26 36 -9 118 71 326
42 109 84 212 93 230 14 28 120 203 131 218 7 8 473 25 473 17 0 -3 -9 -24
-20 -48 -11 -24 -20 -64 -20 -87 0 -37 6 -50 34 -78 33 -33 38 -34 82 -29 27
3 57 13 67 23 11 9 31 17 46 18 37 0 76 31 100 80 32 63 35 104 11 160 -23 53
-34 64 -67 64 -13 0 -23 4 -23 9 0 26 -183 35 -337 17 -139 -17 -290 -22 -301
-12 -3 4 3 15 15 24 12 9 47 55 79 102 64 94 71 102 164 162 60 40 63 43 37
46 l-27 3 20 29 c14 20 20 44 20 82 -1 45 -6 62 -38 107 -41 60 -64 73 -104
59z m-1363 -1175 c3 -16 10 -40 14 -55 10 -29 3 -35 -91 -88 -15 -8 -48 -28
-73 -44 -55 -34 -114 -56 -132 -49 -42 16 73 156 190 231 63 40 85 41 92 5z
m-2061 -149 c-31 -64 -154 -154 -233 -169 -89 -18 -102 -17 -127 6 -13 12 -24
30 -24 39 0 22 80 94 160 144 59 37 62 38 92 23 29 -14 35 -14 69 4 21 10 41
24 45 30 4 8 12 3 21 -15 12 -23 12 -31 -3 -62z m4635 9 c-14 -38 -110 -127
-164 -152 -24 -11 -73 -26 -109 -32 -64 -12 -67 -12 -91 11 -14 13 -25 31 -25
40 0 22 80 94 160 144 60 38 63 38 89 23 25 -14 30 -14 68 3 22 10 44 24 48
30 15 25 36 -35 24 -67z"/>
</g>
</svg>
